Coordinates
version=1
nRows=29
nColumns=22
inDegrees=yes

Units are S.I. units (second, meters, Newtons, ...)
If the header above contains a line with 'inDegrees', this indicates whether rotational values are in degrees (yes) or radians (no).

endheader
time	pelvis_tilt	pelvis_list	pelvis_rotation	pelvis_tx	pelvis_ty	pelvis_tz	hip_flexion_r	hip_adduction_r	hip_rotation_r	knee_angle_r	ankle_angle_r	subtalar_angle_r	hip_flexion_l	hip_adduction_l	hip_rotation_l	knee_angle_l	ankle_angle_l	subtalar_angle_l	lumbar_extension	lumbar_bending	lumbar_rotation
      4.07000000	      0.12275025	     -2.28286204	    -74.51473748	     -0.05903018	      0.99606597	      0.53728526	     23.63211395	      1.71745707	    -14.18268351	    -12.82154435	      4.38477550	      1.62528119	     -6.11037541	      1.67549452	     -8.05455304	    -17.45963078	     19.93983908	     -2.13216580	    -15.13295380	      0.02634423	     -1.82865949
      4.08000000	      0.18525311	     -2.29951895	    -74.36598401	     -0.05670182	      0.99498361	      0.54526925	     23.53789141	      1.61561159	    -14.36169623	    -11.76503383	      4.72942000	      1.61645596	     -6.68962178	      1.71254149	     -8.03233688	    -17.41647193	     20.07701886	     -1.98679320	    -15.05546618	      0.05276300	     -2.00883388
      4.09000000	      0.24755411	     -2.29980900	    -74.17891086	     -0.05431963	      0.99385306	      0.55336576	     23.46382172	      1.47843370	    -14.54057490	    -10.88370597	      5.08483105	      1.61868234	     -7.23913521	      1.74224439	     -7.94746550	    -17.40825239	     20.22775922	     -1.83761035	    -14.94765304	      0.08755986	     -2.22021320
      4.10000000	      0.29064086	     -2.33639820	    -73.98112530	     -0.05192962	      0.99278404	      0.56162864	     23.33863278	      1.35973341	    -14.66400165	    -10.15156752	      5.35186156	      1.65514065	     -7.81603157	      1.72693611	     -7.84815432	    -17.42820123	     20.32495523	     -1.61406082	    -14.85710751	      0.15869304	     -2.40825215
      4.11000000	      0.32693711	     -2.34619086	    -73.75420545	     -0.04950447	      0.99166724	      0.56999730	     23.26966287	      1.21021722	    -14.80484422	     -9.66535097	      5.54782760	      1.69720218	     -8.34465315	      1.70010366	     -7.67221423	    -17.49384007	     20.43507141	     -1.41326758	    -14.72267621	      0.23859913	     -2.62402799
      4.12000000	      0.33237859	     -2.38964549	    -73.53411277	     -0.04709776	      0.99061632	      0.57852471	     23.17915219	      1.09306841	    -14.91721876	     -9.39146129	      5.58392395	      1.75270489	     -8.88757331	      1.61916797	     -7.48295485	    -17.60081417	     20.50350389	     -1.13496388	    -14.60216405	      0.36621982	     -2.80514775
      4.13000000	      0.31437826	     -2.42694885	    -73.30745739	     -0.04472690	      0.98957352	      0.58716226	     23.12753005	      0.98345097	    -15.01807538	     -9.37005131	      5.41702120	      1.77305392	     -9.38757989	      1.50103204	     -7.25144750	    -17.77455409	     20.54763845	     -0.86554205	    -14.46026683	      0.51496018	     -2.96435507
      4.14000000	      0.26130595	     -2.49829309	    -73.11565806	     -0.04240061	      0.98860310	      0.59601714	     23.07308274	      0.92052241	    -15.12304393	     -9.59321861	      5.04691781	      1.72194893	     -9.92020795	      1.33304687	     -7.03764504	    -17.95761656	     20.58385520	     -0.46138608	    -14.32071145	      0.71127455	     -3.06820411
      4.15000000	      0.17995851	     -2.55816606	    -72.94834878	     -0.04015094	      0.98765453	      0.60500611	     23.07482022	      0.88270202	    -15.21548976	    -10.06415208	      4.38352746	      1.58686235	    -10.40679590	      1.13375678	     -6.81313798	    -18.20185847	     20.57656330	     -0.09165062	    -14.14767851	      0.92831907	     -3.14093966
      4.16000000	      0.06571965	     -2.60499557	    -72.82332075	     -0.03796520	      0.98675516	      0.61413982	     23.12484635	      0.88405711	    -15.26066906	    -10.73807093	      3.43061574	      1.46779674	    -10.85291178	      0.91099532	     -6.57741612	    -18.49283399	     20.48967000	      0.16103450	    -13.93428736	      1.17469118	     -3.16782409
      4.17000000	     -0.10024161	     -2.69603151	    -72.75120512	     -0.03588746	      0.98597323	      0.62348913	     23.18303666	      0.96329660	    -15.35982194	    -11.61901508	      2.29199268	      1.03977367	    -11.31208089	      0.61782793	     -6.41463390	    -18.83854434	     20.42987510	      0.69901237	    -13.73140397	      1.47971607	     -3.11092868
      4.18000000	     -0.30143472	     -2.76399180	    -72.75373806	     -0.03392689	      0.98528267	      0.63297597	     23.29552680	      1.09975872	    -15.34871443	    -12.62787013	      0.97849061	      0.65757609	    -11.71676023	      0.31367292	     -6.27053747	    -19.23493864	     20.26578578	      1.10011268	    -13.47729743	      1.80631872	     -2.98539827
      4.19000000	     -0.54310611	     -2.82634009	    -72.83190051	     -0.03209225	      0.98473031	      0.64260439	     23.44153831	      1.30628346	    -15.24365987	    -13.73144886	     -0.36207771	      0.20841463	    -12.07844260	     -0.01459541	     -6.17435476	    -19.69120963	     20.02250186	      1.51522876	    -13.19101563	      2.16533109	     -2.79441968
      4.20000000	     -0.83264679	     -2.88090028	    -72.98599615	     -0.03038158	      0.98433915	      0.65234205	     23.61321208	      1.59359488	    -15.02910807	    -14.88403955	     -1.60685285	     -0.26717250	    -12.38187584	     -0.37152165	     -6.12675754	    -20.22354781	     19.69735903	      1.91841148	    -12.87160752	      2.56834293	     -2.53590844
      4.21000000	     -1.15921609	     -2.92815002	    -73.20942127	     -0.02880402	      0.98413385	      0.66216751	     23.79276686	      1.95343969	    -14.72019199	    -16.04712948	     -2.65627695	     -0.80560603	    -12.62239285	     -0.74760532	     -6.12139892	    -20.84494616	     19.27169793	      2.33252112	    -12.52711489	      3.00067617	     -2.22511100
      4.22000000	     -1.51956645	     -2.97916389	    -73.48948009	     -0.02734263	      0.98415569	      0.67202583	     23.93867866	      2.38966846	    -14.30909925	    -17.15879544	     -3.47170323	     -1.31407746	    -12.79645207	     -1.14251382	     -6.12619401	    -21.57969555	     18.73779452	      2.67727036	    -12.18079246	      3.47062967	     -1.88216777
      4.23000000	     -1.88511537	     -3.02194819	    -73.81222824	     -0.02596029	      0.98437889	      0.68193965	     24.06633691	      2.85330902	    -13.90736961	    -18.25408712	     -3.97609949	     -1.98316165	    -12.90947843	     -1.53180869	     -6.17388255	    -22.40513325	     18.08346047	      3.09868788	    -11.82078786	      3.94462362	     -1.52881519
      4.24000000	     -2.24413059	     -3.07198784	    -74.14039786	     -0.02463260	      0.98484023	      0.69183961	     24.12273262	      3.33263204	    -13.52109878	    -19.26707154	     -4.18204202	     -2.68273843	    -12.95999979	     -1.91526878	     -6.19988607	    -23.34597256	     17.29555553	      3.51449030	    -11.47667929	      4.41612669	     -1.20673466
      4.25000000	     -2.58549387	     -3.12826598	    -74.45330928	     -0.02333374	      0.98553414	      0.70167397	     24.08786621	      3.81126750	    -13.16312586	    -20.15976029	     -4.13171339	     -3.37838484	    -12.93515886	     -2.28783631	     -6.18967128	    -24.41851828	     16.37699793	      3.91309013	    -11.15595459	      4.87704854	     -0.93786598
      4.26000000	     -2.88183550	     -3.19272740	    -74.70941792	     -0.02201996	      0.98646390	      0.71136738	     23.94197737	      4.24764180	    -12.85376515	    -20.90797150	     -3.88122155	     -4.08038798	    -12.82724117	     -2.63250806	     -6.10173769	    -25.63040420	     15.32419035	      4.32779322	    -10.87308425	      5.30209460	     -0.78675788
      4.27000000	     -3.17835022	     -3.25532350	    -74.94628756	     -0.02076413	      0.98756318	      0.72094485	     23.70233369	      4.69761613	    -12.56753017	    -21.48948319	     -3.50693693	     -4.58857085	    -12.61908784	     -2.99752351	     -6.02720961	    -26.98190323	     14.18728192	      4.62532975	    -10.60326081	      5.72715715	     -0.66833709
      4.28000000	     -3.43940930	     -3.30990075	    -75.10938560	     -0.01948022	      0.98881902	      0.73034725	     23.37306002	      5.09084711	    -12.39572337	    -21.91681281	     -3.02581763	     -5.02490220	    -12.30646073	     -3.34947583	     -5.87329447	    -28.46039171	     12.94661647	      4.93233302	    -10.34840406	      6.11435852	     -0.62604353
      4.29000000	     -3.64966169	     -3.35417535	    -75.19927591	     -0.01818540	      0.99019336	      0.73950888	     22.96930351	      5.41857396	    -12.26543070	    -22.20770535	     -2.49859489	     -5.38814976	    -11.88172383	     -3.67927328	     -5.67763023	    -30.07018491	     11.64566594	      5.26814804	    -10.12004718	      6.44840511	     -0.71587707
      4.30000000	     -3.83067032	     -3.38691959	    -75.22734831	     -0.01688712	      0.99164286	      0.74845157	     22.50589850	      5.69566494	    -12.22806284	    -22.37009998	     -1.94853279	     -5.63905208	    -11.34930123	     -4.00659812	     -5.45388180	    -31.79156495	     10.31202820	      5.58110641	     -9.90668816	      6.74212944	     -0.84406676
      4.31000000	     -3.97267303	     -3.39140240	    -75.19470845	     -0.01556674	      0.99309667	      0.75711809	     22.02501129	      5.91073102	    -12.22944247	    -22.44363855	     -1.40244419	     -5.84633592	    -10.69001678	     -4.31792498	     -5.21996303	    -33.62593480	      8.99162847	      5.94000207	     -9.69721105	      6.99006161	     -1.04250691
      4.32000000	     -4.08168446	     -3.35168429	    -75.13009014	     -0.01429421	      0.99448750	      0.76551890	     21.56573101	      6.07480529	    -12.25363551	    -22.46458036	     -0.85854126	     -6.01989357	     -9.89750385	     -4.60975583	     -4.99527288	    -35.55236456	      7.70746968	      6.36767256	     -9.47370343	      7.17616143	     -1.25249472
      4.33000000	     -4.18465251	     -3.33740067	    -75.00553545	     -0.01296547	      0.99587936	      0.77361501	     21.06735245	      6.21230225	    -12.37637949	    -22.43031517	     -0.37445330	     -6.11394953	     -9.03822844	     -4.93987844	     -4.79786670	    -37.55659909	      6.50635366	      6.66507303	     -9.30836758	      7.37057057	     -1.49604641
      4.34000000	     -4.25732300	     -3.25791265	    -74.87941212	     -0.01173655	      0.99710375	      0.78142027	     20.64177426	      6.31137066	    -12.45322033	    -22.38443201	      0.10902361	     -6.20838051	     -8.03706154	     -5.25404837	     -4.67799905	    -39.61706876	      5.41253564	      7.04271387	     -9.10882704	      7.49756366	     -1.74881905
      4.35000000	     -4.31829221	     -3.16255608	    -74.77258965	     -0.01059716	      0.99821378	      0.78893856	     20.25468095	      6.40069028	    -12.51004148	    -22.34882220	      0.58140328	     -6.29390546	     -6.96650006	     -5.57325221	     -4.63247982	    -41.68015472	      4.43914541	      7.41228543	     -8.93189205	      7.59515400	     -1.92383452
